# created with CityEngine 2018.0.3929 0503R (based on Esri Procedural Runtime 1.10.4051, build date: Thu 05/03/2018 05:11 PM)
# creation date: Tue Jul  3 18:20:48 2018

mtllib twistedBar.mtl

# mesh 'mesh_initialShadingGroup' from geometry 'mesh_initialShadingGroup'
v 0.066 3.983 -0.056
v -0.046 3.984 -0.056
v -0.046 3.984 0.056
v 0.066 3.983 0.056
v -0.056 0.000 0.056
v -0.056 0.000 -0.056
v 0.056 0.000 -0.056
v 0.056 0.000 0.056
v 0.076 0.295 0.025
v -0.024 0.295 0.076
v 0.080 0.548 -0.012
v 0.013 0.548 0.079
v 0.066 0.778 -0.047
v 0.048 0.778 0.064
v 0.038 0.989 -0.071
v 0.073 0.989 0.036
v 0.002 1.182 -0.080
v 0.081 1.182 0.000
v -0.034 1.362 -0.071
v 0.073 1.362 -0.036
v -0.063 1.531 -0.047
v 0.048 1.531 -0.064
v -0.078 1.690 -0.012
v 0.013 1.691 -0.079
v -0.075 1.845 0.025
v -0.024 1.845 -0.076
v -0.056 1.996 0.056
v -0.056 1.996 -0.056
v -0.025 2.148 0.076
v -0.076 2.147 -0.025
v 0.012 2.302 0.079
v -0.079 2.302 0.012
v 0.046 2.461 0.064
v -0.065 2.461 0.047
v 0.070 2.630 0.036
v -0.037 2.630 0.071
v 0.080 2.809 0.000
v 0.000 2.810 0.080
v 0.072 3.004 -0.036
v 0.037 3.004 0.071
v 0.049 3.215 -0.064
v 0.067 3.215 0.047
v 0.017 3.447 -0.079
v 0.083 3.447 0.012
v -0.018 3.703 -0.076
v 0.082 3.702 -0.025
v 0.025 0.295 -0.076
v -0.011 0.548 -0.079
v -0.045 0.778 -0.064
v -0.069 0.989 -0.036
v -0.078 1.182 0.000
v -0.069 1.362 0.036
v -0.045 1.531 0.064
v -0.012 1.691 0.079
v 0.025 1.845 0.076
v 0.056 1.997 0.056
v 0.075 2.148 0.025
v 0.078 2.302 -0.012
v 0.064 2.461 -0.047
v 0.036 2.630 -0.071
v 0.000 2.810 -0.080
v -0.035 3.004 -0.071
v -0.062 3.216 -0.047
v -0.074 3.448 -0.012
v -0.069 3.703 0.025
v -0.076 0.295 -0.025
v -0.078 0.548 0.012
v -0.063 0.778 0.047
v -0.034 0.989 0.071
v 0.002 1.182 0.080
v 0.038 1.362 0.071
v 0.066 1.531 0.047
v 0.079 1.691 0.012
v 0.076 1.845 -0.025
v 0.056 1.997 -0.056
v 0.024 2.148 -0.076
v -0.013 2.302 -0.079
v -0.047 2.461 -0.064
v -0.071 2.630 -0.036
v -0.079 2.810 0.000
v -0.070 3.004 0.036
v -0.044 3.216 0.064
v -0.008 3.448 0.079
v 0.031 3.702 0.076
# 84 vertices

vn 0.011 1.000 0.000
vn 0.000 -1.000 0.000
vn 0.233 0.000 0.972
vn 0.450 -0.001 0.893
vn 0.424 -0.001 0.906
vn 0.812 -0.002 0.584
vn 0.793 -0.002 0.610
vn 0.989 -0.002 0.150
vn 0.983 -0.002 0.185
vn 0.948 0.000 -0.318
vn 0.960 0.000 -0.281
vn 0.699 0.000 -0.715
vn 0.728 0.000 -0.685
vn 0.295 0.000 -0.955
vn 0.338 0.000 -0.941
vn -0.174 0.000 -0.985
vn -0.126 0.000 -0.992
vn -0.604 -0.002 -0.797
vn -0.564 -0.002 -0.826
vn -0.901 -0.003 -0.433
vn -0.878 -0.003 -0.479
vn -1.000 -0.003 0.026
vn -1.000 -0.003 -0.026
vn -0.878 -0.002 0.479
vn -0.901 -0.002 0.433
vn -0.564 0.000 0.826
vn -0.604 0.000 0.797
vn -0.126 0.000 0.992
vn -0.174 0.000 0.985
vn 0.338 0.000 0.941
vn 0.295 0.000 0.955
vn 0.728 -0.003 0.685
vn 0.699 -0.003 0.715
vn 0.960 -0.006 0.281
vn 0.948 -0.005 0.318
vn 0.983 -0.007 -0.185
vn 0.989 -0.007 -0.150
vn 0.792 -0.007 -0.610
vn 0.812 -0.007 -0.584
vn 0.430 -0.004 -0.903
vn 0.456 -0.005 -0.890
vn 0.233 -0.003 -0.972
vn 0.972 0.000 -0.233
vn 0.893 -0.002 -0.450
vn 0.906 -0.001 -0.424
vn 0.584 -0.002 -0.812
vn 0.610 -0.002 -0.792
vn 0.149 0.000 -0.989
vn 0.185 0.000 -0.983
vn -0.318 0.000 -0.948
vn -0.281 0.000 -0.960
vn -0.715 0.000 -0.699
vn -0.685 0.000 -0.728
vn -0.955 -0.002 -0.295
vn -0.941 -0.001 -0.338
vn -0.985 -0.002 0.174
vn -0.992 -0.002 0.127
vn -0.797 -0.002 0.604
vn -0.826 -0.002 0.564
vn -0.433 -0.001 0.901
vn -0.479 -0.001 0.878
vn 0.026 0.000 1.000
vn -0.026 0.000 1.000
vn 0.479 0.000 0.878
vn 0.433 0.000 0.901
vn 0.826 0.000 0.564
vn 0.797 0.000 0.604
vn 0.992 0.000 0.126
vn 0.985 0.000 0.174
vn 0.941 -0.002 -0.338
vn 0.955 -0.002 -0.295
vn 0.685 -0.003 -0.728
vn 0.715 -0.003 -0.699
vn 0.281 -0.001 -0.960
vn 0.317 -0.002 -0.948
vn -0.185 0.002 -0.983
vn -0.150 0.001 -0.989
vn -0.610 0.006 -0.792
vn -0.584 0.005 -0.812
vn -0.903 0.009 -0.430
vn -0.890 0.009 -0.456
vn -0.972 0.011 -0.233
vn -0.233 0.000 -0.972
vn -0.450 0.001 -0.893
vn -0.424 0.001 -0.905
vn -0.812 0.002 -0.584
vn -0.792 0.002 -0.610
vn -0.989 0.002 -0.150
vn -0.983 0.002 -0.185
vn -0.948 0.000 0.318
vn -0.960 0.000 0.281
vn -0.699 0.000 0.715
vn -0.728 0.000 0.685
vn -0.295 0.000 0.955
vn -0.338 0.000 0.941
vn 0.174 0.000 0.985
vn 0.127 0.000 0.992
vn 0.604 0.002 0.797
vn 0.564 0.002 0.826
vn 0.901 0.003 0.433
vn 0.878 0.003 0.479
vn 1.000 0.003 -0.026
vn 1.000 0.003 0.026
vn 0.878 0.002 -0.479
vn 0.901 0.002 -0.433
vn 0.564 0.000 -0.826
vn 0.604 0.000 -0.797
vn 0.127 0.000 -0.992
vn 0.173 0.000 -0.985
vn -0.338 0.000 -0.941
vn -0.295 0.000 -0.955
vn -0.728 0.003 -0.685
vn -0.699 0.003 -0.715
vn -0.960 0.006 -0.281
vn -0.948 0.005 -0.317
vn -0.983 0.007 0.185
vn -0.989 0.007 0.150
vn -0.792 0.007 0.610
vn -0.812 0.007 0.584
vn -0.430 0.004 0.903
vn -0.457 0.005 0.890
vn -0.233 0.003 0.972
vn -0.972 0.000 0.233
vn -0.893 0.002 0.450
vn -0.906 0.001 0.424
vn -0.584 0.002 0.812
vn -0.610 0.002 0.792
vn -0.150 0.000 0.989
vn -0.185 0.000 0.983
vn 0.318 0.000 0.948
vn 0.281 0.000 0.960
vn 0.715 0.000 0.699
vn 0.685 0.000 0.728
vn 0.955 0.002 0.295
vn 0.941 0.001 0.338
vn 0.985 0.002 -0.174
vn 0.992 0.002 -0.127
vn 0.797 0.002 -0.604
vn 0.826 0.002 -0.564
vn 0.433 0.001 -0.901
vn 0.479 0.001 -0.878
vn -0.026 0.000 -1.000
vn 0.026 0.000 -1.000
vn -0.479 0.000 -0.878
vn -0.433 0.000 -0.901
vn -0.826 0.000 -0.564
vn -0.797 0.000 -0.604
vn -0.992 0.000 -0.126
vn -0.985 0.000 -0.174
vn -0.941 0.002 0.338
vn -0.955 0.002 0.295
vn -0.685 0.003 0.728
vn -0.715 0.003 0.699
vn -0.280 0.001 0.960
vn -0.318 0.002 0.948
vn 0.185 -0.002 0.983
vn 0.150 -0.001 0.989
vn 0.610 -0.006 0.792
vn 0.584 -0.005 0.812
vn 0.903 -0.009 0.430
vn 0.890 -0.009 0.457
vn 0.972 -0.011 0.233
# 162 vertex normals

vt 0.3750 0.2500
vt 0.6250 0.2500
vt 0.6250 0.5000
vt 0.3750 0.5000
# 4 texture coordinates

g initialShadingGroup
s off
usemtl initialShadingGroup
f 1/1/1 2/2/1 3/3/1 4/4/1
f 5/1/2 6/4/2 7/3/2 8/2/2
f 5/1/3 8/2/3 9/2/4 10/1/5
f 10/1/5 9/2/4 11/2/6 12/1/7
f 12/1/7 11/2/6 13/2/8 14/1/9
f 14/1/9 13/2/8 15/2/10 16/1/11
f 16/1/11 15/2/10 17/2/12 18/1/13
f 18/1/13 17/2/12 19/2/14 20/1/15
f 20/1/15 19/2/14 21/2/16 22/1/17
f 22/1/17 21/2/16 23/2/18 24/1/19
f 24/1/19 23/2/18 25/2/20 26/1/21
f 26/1/21 25/2/20 27/2/22 28/1/23
f 28/1/23 27/2/22 29/2/24 30/1/25
f 30/1/25 29/2/24 31/2/26 32/1/27
f 32/1/27 31/2/26 33/2/28 34/1/29
f 34/1/29 33/2/28 35/2/30 36/1/31
f 36/1/31 35/2/30 37/2/32 38/1/33
f 38/1/33 37/2/32 39/2/34 40/1/35
f 40/1/35 39/2/34 41/2/36 42/1/37
f 42/1/37 41/2/36 43/2/38 44/1/39
f 44/1/39 43/2/38 45/2/40 46/1/41
f 46/1/41 45/2/40 2/2/42 1/1/42
f 8/2/43 7/3/43 47/3/44 9/2/45
f 9/2/45 47/3/44 48/3/46 11/2/47
f 11/2/47 48/3/46 49/3/48 13/2/49
f 13/2/49 49/3/48 50/3/50 15/2/51
f 15/2/51 50/3/50 51/3/52 17/2/53
f 17/2/53 51/3/52 52/3/54 19/2/55
f 19/2/55 52/3/54 53/3/56 21/2/57
f 21/2/57 53/3/56 54/3/58 23/2/59
f 23/2/59 54/3/58 55/3/60 25/2/61
f 25/2/61 55/3/60 56/3/62 27/2/63
f 27/2/63 56/3/62 57/3/64 29/2/65
f 29/2/65 57/3/64 58/3/66 31/2/67
f 31/2/67 58/3/66 59/3/68 33/2/69
f 33/2/69 59/3/68 60/3/70 35/2/71
f 35/2/71 60/3/70 61/3/72 37/2/73
f 37/2/73 61/3/72 62/3/74 39/2/75
f 39/2/75 62/3/74 63/3/76 41/2/77
f 41/2/77 63/3/76 64/3/78 43/2/79
f 43/2/79 64/3/78 65/3/80 45/2/81
f 45/2/81 65/3/80 3/3/82 2/2/82
f 7/3/83 6/4/83 66/4/84 47/3/85
f 47/3/85 66/4/84 67/4/86 48/3/87
f 48/3/87 67/4/86 68/4/88 49/3/89
f 49/3/89 68/4/88 69/4/90 50/3/91
f 50/3/91 69/4/90 70/4/92 51/3/93
f 51/3/93 70/4/92 71/4/94 52/3/95
f 52/3/95 71/4/94 72/4/96 53/3/97
f 53/3/97 72/4/96 73/4/98 54/3/99
f 54/3/99 73/4/98 74/4/100 55/3/101
f 55/3/101 74/4/100 75/4/102 56/3/103
f 56/3/103 75/4/102 76/4/104 57/3/105
f 57/3/105 76/4/104 77/4/106 58/3/107
f 58/3/107 77/4/106 78/4/108 59/3/109
f 59/3/109 78/4/108 79/4/110 60/3/111
f 60/3/111 79/4/110 80/4/112 61/3/113
f 61/3/113 80/4/112 81/4/114 62/3/115
f 62/3/115 81/4/114 82/4/116 63/3/117
f 63/3/117 82/4/116 83/4/118 64/3/119
f 64/3/119 83/4/118 84/4/120 65/3/121
f 65/3/121 84/4/120 4/4/122 3/3/122
f 6/4/123 5/1/123 10/1/124 66/4/125
f 66/4/125 10/1/124 12/1/126 67/4/127
f 67/4/127 12/1/126 14/1/128 68/4/129
f 68/4/129 14/1/128 16/1/130 69/4/131
f 69/4/131 16/1/130 18/1/132 70/4/133
f 70/4/133 18/1/132 20/1/134 71/4/135
f 71/4/135 20/1/134 22/1/136 72/4/137
f 72/4/137 22/1/136 24/1/138 73/4/139
f 73/4/139 24/1/138 26/1/140 74/4/141
f 74/4/141 26/1/140 28/1/142 75/4/143
f 75/4/143 28/1/142 30/1/144 76/4/145
f 76/4/145 30/1/144 32/1/146 77/4/147
f 77/4/147 32/1/146 34/1/148 78/4/149
f 78/4/149 34/1/148 36/1/150 79/4/151
f 79/4/151 36/1/150 38/1/152 80/4/153
f 80/4/153 38/1/152 40/1/154 81/4/155
f 81/4/155 40/1/154 42/1/156 82/4/157
f 82/4/157 42/1/156 44/1/158 83/4/159
f 83/4/159 44/1/158 46/1/160 84/4/161
f 84/4/161 46/1/160 1/1/162 4/4/162
# 82 faces

