# created with CityEngine 2018.0.3929 0503R (based on Esri Procedural Runtime 1.10.4051, build date: Thu 05/03/2018 05:11 PM)
# creation date: Mon Jul  2 19:24:28 2018

mtllib twistedRope.mtl

# mesh 'mesh_initialShadingGroup' from geometry 'mesh_initialShadingGroup'
v 1.998 0.205 0.023
v 1.999 0.202 0.010
v 1.997 0.211 0.000
v 1.995 0.223 0.000
v 1.994 0.231 0.010
v 1.994 0.229 0.023
v 1.996 0.217 0.029
v 1.994 0.229 -0.023
v 1.994 0.231 -0.010
v 1.999 0.202 -0.010
v 1.998 0.205 -0.023
v 1.996 0.217 -0.028
v -1.999 0.238 -0.023
v -1.999 0.227 -0.028
v -1.999 0.215 -0.023
v -1.999 0.212 -0.010
v -1.999 0.220 0.000
v -1.999 0.233 0.000
v -1.999 0.241 -0.010
v -1.999 0.215 0.023
v -1.999 0.227 0.029
v -1.999 0.238 0.023
v -1.999 0.241 0.010
v -1.999 0.212 0.010
v -1.326 0.131 -0.004
v -1.326 0.133 -0.017
v -0.802 0.074 0.003
v -0.801 0.080 -0.008
v -0.374 0.048 0.010
v -0.373 0.059 0.002
v 0.006 0.039 0.015
v 0.007 0.051 0.012
v 0.387 0.035 0.017
v 0.387 0.048 0.020
v 0.814 0.050 0.018
v 0.813 0.061 0.024
v 1.335 0.100 0.015
v 1.335 0.108 0.026
v -1.328 0.120 0.003
v -0.804 0.061 0.005
v -0.375 0.036 0.006
v 0.006 0.028 0.007
v 0.387 0.029 0.006
v 0.814 0.049 0.005
v 1.335 0.104 0.002
v -1.330 0.108 -0.002
v -0.805 0.052 -0.005
v -0.375 0.031 -0.006
v 0.006 0.028 -0.007
v 0.387 0.034 -0.006
v 0.813 0.058 -0.005
v 1.334 0.116 -0.003
v -1.331 0.104 -0.015
v -0.804 0.053 -0.018
v -0.375 0.037 -0.017
v 0.006 0.039 -0.015
v 0.387 0.047 -0.010
v 0.813 0.071 -0.003
v 1.333 0.127 0.004
v -1.329 0.112 -0.026
v -0.803 0.064 -0.024
v -0.374 0.050 -0.020
v 0.007 0.051 -0.012
v 0.387 0.057 -0.002
v 0.812 0.078 0.008
v 1.332 0.129 0.017
v -1.327 0.124 -0.026
v -0.802 0.076 -0.020
v -0.373 0.059 -0.011
v 0.007 0.057 0.000
v 0.387 0.058 0.011
v 0.813 0.074 0.020
v 1.333 0.121 0.026
v -1.332 0.097 0.004
v -1.332 0.094 0.017
v -0.806 0.039 -0.003
v -0.807 0.032 0.008
v -0.376 0.018 -0.010
v -0.376 0.008 -0.002
v 0.006 0.018 -0.015
v 0.006 0.006 -0.012
v 0.387 0.028 -0.017
v 0.387 0.015 -0.020
v 0.813 0.057 -0.018
v 0.814 0.046 -0.024
v 1.333 0.119 -0.015
v 1.334 0.112 -0.026
v -1.328 0.123 0.015
v -0.804 0.059 0.018
v -0.375 0.029 0.017
v 0.006 0.018 0.015
v 0.387 0.017 0.010
v 0.815 0.036 0.003
v 1.336 0.092 -0.004
v -1.329 0.116 0.026
v -0.805 0.048 0.024
v -0.376 0.016 0.020
v 0.006 0.006 0.012
v 0.387 0.006 0.002
v 0.815 0.029 -0.008
v 1.337 0.090 -0.017
v -1.331 0.103 0.026
v -0.806 0.036 0.020
v -0.376 0.007 0.011
v 0.006 0.000 0.000
v 0.387 0.005 -0.011
v 0.815 0.033 -0.020
v 1.336 0.099 -0.026
# 108 vertices

vn 0.987 0.160 0.000
vn -1.000 0.000 0.000
vn 0.159 0.987 -0.027
vn 0.132 0.981 0.144
vn 0.132 0.981 0.142
vn 0.064 0.855 0.514
vn 0.010 0.589 0.808
vn -0.011 0.222 0.975
vn -0.011 0.224 0.975
vn -0.003 -0.178 0.984
vn -0.003 -0.180 0.984
vn 0.039 -0.546 0.837
vn 0.039 -0.549 0.835
vn 0.108 -0.822 0.559
vn 0.108 -0.823 0.558
vn 0.138 -0.902 0.408
vn 0.102 0.639 0.762
vn 0.070 0.504 0.861
vn 0.069 0.500 0.864
vn 0.008 0.135 0.991
vn 0.008 0.129 0.992
vn -0.015 -0.263 0.965
vn -0.015 -0.267 0.964
vn -0.011 -0.623 0.782
vn 0.019 -0.880 0.474
vn 0.019 -0.881 0.473
vn 0.074 -0.993 0.092
vn 0.122 -0.946 -0.302
vn 0.122 -0.946 -0.299
vn 0.136 -0.878 -0.459
vn -0.033 -0.194 0.981
vn -0.046 -0.355 0.934
vn -0.046 -0.361 0.931
vn -0.055 -0.689 0.723
vn -0.054 -0.692 0.720
vn -0.030 -0.918 0.394
vn -0.030 -0.919 0.393
vn -0.002 -1.000 0.000
vn 0.027 -0.919 -0.394
vn 0.027 -0.919 -0.392
vn 0.053 -0.689 -0.723
vn 0.053 -0.693 -0.719
vn 0.044 -0.355 -0.934
vn 0.045 -0.360 -0.932
vn 0.031 -0.193 -0.981
vn -0.142 -0.879 0.456
vn -0.127 -0.946 0.299
vn -0.126 -0.946 0.298
vn -0.076 -0.993 -0.093
vn -0.076 -0.993 -0.091
vn -0.021 -0.880 -0.475
vn -0.022 -0.882 -0.471
vn 0.008 -0.622 -0.783
vn 0.008 -0.625 -0.781
vn 0.015 -0.263 -0.965
vn 0.015 -0.269 -0.963
vn -0.008 0.136 -0.991
vn -0.007 0.127 -0.992
vn -0.067 0.503 -0.861
vn -0.066 0.498 -0.865
vn -0.097 0.638 -0.764
vn -0.145 -0.902 -0.407
vn -0.111 -0.821 -0.561
vn -0.113 -0.824 -0.555
vn -0.039 -0.544 -0.838
vn -0.041 -0.552 -0.833
vn 0.003 -0.175 -0.984
vn 0.002 -0.184 -0.983
vn 0.012 0.225 -0.974
vn 0.012 0.219 -0.976
vn -0.009 0.591 -0.806
vn -0.008 0.584 -0.811
vn -0.063 0.857 -0.512
vn -0.062 0.853 -0.518
vn -0.128 0.982 -0.141
vn -0.127 0.981 -0.145
vn -0.152 0.988 0.028
vn -0.038 -0.248 -0.968
vn -0.012 -0.075 -0.997
vn -0.014 -0.086 -0.996
vn 0.026 0.315 -0.949
vn 0.026 0.304 -0.952
vn 0.025 0.661 -0.750
vn 0.025 0.653 -0.757
vn 0.007 0.903 -0.430
vn 0.007 0.899 -0.437
vn -0.026 0.999 -0.041
vn -0.025 0.999 -0.048
vn -0.070 0.934 0.351
vn -0.070 0.935 0.348
vn -0.093 0.723 0.684
vn -0.093 0.594 0.799
vn 0.097 0.596 -0.797
vn 0.095 0.727 -0.680
vn 0.096 0.721 -0.686
vn 0.072 0.936 -0.346
vn 0.073 0.933 -0.353
vn 0.028 0.998 0.047
vn 0.029 0.999 0.041
vn -0.004 0.900 0.436
vn -0.003 0.902 0.431
vn -0.023 0.657 0.754
vn -0.023 0.658 0.753
vn -0.025 0.311 0.950
vn -0.025 0.310 0.951
vn 0.012 -0.078 0.997
vn 0.012 -0.081 0.997
vn 0.037 -0.247 0.968
vn -0.174 -0.984 0.026
vn -0.149 -0.978 -0.146
vn -0.150 -0.978 -0.143
vn -0.085 -0.851 -0.518
vn -0.086 -0.855 -0.512
vn -0.036 -0.584 -0.811
vn -0.037 -0.591 -0.806
vn -0.016 -0.219 -0.976
vn -0.016 -0.226 -0.974
vn -0.023 0.183 -0.983
vn -0.022 0.174 -0.985
vn -0.061 0.550 -0.833
vn -0.060 0.542 -0.838
vn -0.126 0.822 -0.556
vn -0.125 0.818 -0.561
vn -0.153 0.900 -0.408
vn -0.114 -0.638 -0.762
vn -0.083 -0.496 -0.864
vn -0.084 -0.502 -0.860
vn -0.025 -0.127 -0.992
vn -0.026 -0.134 -0.991
vn -0.005 0.269 -0.963
vn -0.005 0.263 -0.965
vn -0.011 0.625 -0.781
vn -0.011 0.622 -0.783
vn -0.040 0.881 -0.472
vn -0.039 0.879 -0.475
vn -0.091 0.992 -0.091
vn -0.091 0.992 -0.093
vn -0.136 0.944 0.300
vn -0.136 0.944 0.301
vn -0.148 0.876 0.459
vn 0.033 0.194 -0.981
vn 0.046 0.361 -0.931
vn 0.046 0.355 -0.934
vn 0.054 0.692 -0.720
vn 0.055 0.689 -0.723
vn 0.030 0.919 -0.393
vn 0.030 0.918 -0.394
vn 0.002 1.000 0.000
vn -0.027 0.919 0.392
vn -0.027 0.919 0.394
vn -0.053 0.693 0.719
vn -0.053 0.689 0.723
vn -0.045 0.360 0.932
vn -0.044 0.355 0.934
vn -0.031 0.193 0.981
vn 0.154 0.877 -0.455
vn 0.140 0.945 -0.297
vn 0.140 0.944 -0.300
vn 0.093 0.991 0.092
vn 0.042 0.880 0.473
vn 0.042 0.880 0.474
vn 0.014 0.624 0.781
vn 0.006 0.268 0.963
vn 0.006 0.264 0.965
vn 0.025 -0.128 0.992
vn 0.025 -0.134 0.991
vn 0.080 -0.497 0.864
vn 0.081 -0.501 0.862
vn 0.109 -0.636 0.764
vn 0.159 0.899 0.407
vn 0.129 0.821 0.557
vn 0.129 0.820 0.558
vn 0.062 0.547 0.835
vn 0.062 0.545 0.836
vn 0.023 0.179 0.984
vn 0.023 0.178 0.984
vn 0.015 -0.223 0.975
vn 0.015 -0.222 0.975
vn 0.034 -0.587 0.809
vn 0.084 -0.853 0.515
vn 0.145 -0.979 0.142
vn 0.145 -0.979 0.144
vn 0.167 -0.986 -0.028
vn 0.045 0.248 0.968
vn 0.021 0.081 0.997
vn 0.021 0.078 0.997
vn -0.016 -0.310 0.950
vn -0.016 -0.312 0.950
vn -0.014 -0.658 0.753
vn -0.014 -0.657 0.754
vn 0.005 -0.902 0.432
vn 0.005 -0.900 0.436
vn 0.037 -0.998 0.041
vn 0.036 -0.998 0.047
vn 0.080 -0.932 -0.353
vn 0.080 -0.935 -0.346
vn 0.100 -0.719 -0.687
vn 0.100 -0.725 -0.681
vn 0.099 -0.593 -0.799
vn -0.104 -0.596 0.797
vn -0.103 -0.723 0.683
vn -0.082 -0.934 0.348
vn -0.082 -0.933 0.351
vn -0.040 -0.998 -0.047
vn -0.040 -0.998 -0.041
vn -0.009 -0.899 -0.437
vn -0.009 -0.903 -0.430
vn 0.012 -0.654 -0.757
vn 0.011 -0.661 -0.750
vn 0.015 -0.305 -0.952
vn 0.016 -0.317 -0.948
vn -0.021 0.084 -0.996
vn -0.019 0.073 -0.997
vn -0.043 0.246 -0.968
# 214 vertex normals

vt 0.5974 0.9659
vt 0.4652 0.9961
vt 0.3592 0.9115
vt 0.3592 0.7760
vt 0.4652 0.6914
vt 0.5974 0.7216
vt 0.6562 0.8438
# 7 texture coordinates

g initialShadingGroup
s off
usemtl initialShadingGroup
f 1/1/1 2/2/1 3/3/1 4/4/1 5/5/1 6/6/1 7/7/1
f 8/1/1 9/2/1 4/3/1 3/4/1 10/5/1 11/6/1 12/7/1
f 13/1/2 14/7/2 15/6/2 16/5/2 17/4/2 18/3/2 19/2/2
f 20/1/2 21/7/2 22/6/2 23/5/2 18/4/2 17/3/2 24/2/2
f 13/1/3 19/2/3 25/2/4 26/1/5
f 26/1/5 25/2/4 27/2/6 28/1/6
f 28/1/6 27/2/6 29/2/7 30/1/7
f 30/1/7 29/2/7 31/2/8 32/1/9
f 32/1/9 31/2/8 33/2/10 34/1/11
f 34/1/11 33/2/10 35/2/12 36/1/13
f 36/1/13 35/2/12 37/2/14 38/1/15
f 38/1/15 37/2/14 2/2/16 1/1/16
f 19/2/17 18/3/17 39/3/18 25/2/19
f 25/2/19 39/3/18 40/3/20 27/2/21
f 27/2/21 40/3/20 41/3/22 29/2/23
f 29/2/23 41/3/22 42/3/24 31/2/24
f 31/2/24 42/3/24 43/3/25 33/2/26
f 33/2/26 43/3/25 44/3/27 35/2/27
f 35/2/27 44/3/27 45/3/28 37/2/29
f 37/2/29 45/3/28 3/3/30 2/2/30
f 18/3/31 17/4/31 46/4/32 39/3/33
f 39/3/33 46/4/32 47/4/34 40/3/35
f 40/3/35 47/4/34 48/4/36 41/3/37
f 41/3/37 48/4/36 49/4/38 42/3/38
f 42/3/38 49/4/38 50/4/39 43/3/40
f 43/3/40 50/4/39 51/4/41 44/3/42
f 44/3/42 51/4/41 52/4/43 45/3/44
f 45/3/44 52/4/43 4/4/45 3/3/45
f 17/4/46 16/5/46 53/5/47 46/4/48
f 46/4/48 53/5/47 54/5/49 47/4/50
f 47/4/50 54/5/49 55/5/51 48/4/52
f 48/4/52 55/5/51 56/5/53 49/4/54
f 49/4/54 56/5/53 57/5/55 50/4/56
f 50/4/56 57/5/55 58/5/57 51/4/58
f 51/4/58 58/5/57 59/5/59 52/4/60
f 52/4/60 59/5/59 5/5/61 4/4/61
f 16/5/62 15/6/62 60/6/63 53/5/64
f 53/5/64 60/6/63 61/6/65 54/5/66
f 54/5/66 61/6/65 62/6/67 55/5/68
f 55/5/68 62/6/67 63/6/69 56/5/70
f 56/5/70 63/6/69 64/6/71 57/5/72
f 57/5/72 64/6/71 65/6/73 58/5/74
f 58/5/74 65/6/73 66/6/75 59/5/76
f 59/5/76 66/6/75 6/6/77 5/5/77
f 15/6/78 14/7/78 67/7/79 60/6/80
f 60/6/80 67/7/79 68/7/81 61/6/82
f 61/6/82 68/7/81 69/7/83 62/6/84
f 62/6/84 69/7/83 70/7/85 63/6/86
f 63/6/86 70/7/85 71/7/87 64/6/88
f 64/6/88 71/7/87 72/7/89 65/6/90
f 65/6/90 72/7/89 73/7/91 66/6/91
f 66/6/91 73/7/91 7/7/92 6/6/92
f 14/7/93 13/1/93 26/1/94 67/7/95
f 67/7/95 26/1/94 28/1/96 68/7/97
f 68/7/97 28/1/96 30/1/98 69/7/99
f 69/7/99 30/1/98 32/1/100 70/7/101
f 70/7/101 32/1/100 34/1/102 71/7/103
f 71/7/103 34/1/102 36/1/104 72/7/105
f 72/7/105 36/1/104 38/1/106 73/7/107
f 73/7/107 38/1/106 1/1/108 7/7/108
f 20/1/109 24/2/109 74/2/110 75/1/111
f 75/1/111 74/2/110 76/2/112 77/1/113
f 77/1/113 76/2/112 78/2/114 79/1/115
f 79/1/115 78/2/114 80/2/116 81/1/117
f 81/1/117 80/2/116 82/2/118 83/1/119
f 83/1/119 82/2/118 84/2/120 85/1/121
f 85/1/121 84/2/120 86/2/122 87/1/123
f 87/1/123 86/2/122 9/2/124 8/1/124
f 24/2/125 17/3/125 46/3/126 74/2/127
f 74/2/127 46/3/126 47/3/128 76/2/129
f 76/2/129 47/3/128 48/3/130 78/2/131
f 78/2/131 48/3/130 49/3/132 80/2/133
f 80/2/133 49/3/132 50/3/134 82/2/135
f 82/2/135 50/3/134 51/3/136 84/2/137
f 84/2/137 51/3/136 52/3/138 86/2/139
f 86/2/139 52/3/138 4/3/140 9/2/140
f 17/3/141 18/4/141 39/4/142 46/3/143
f 46/3/143 39/4/142 40/4/144 47/3/145
f 47/3/145 40/4/144 41/4/146 48/3/147
f 48/3/147 41/4/146 42/4/148 49/3/148
f 49/3/148 42/4/148 43/4/149 50/3/150
f 50/3/150 43/4/149 44/4/151 51/3/152
f 51/3/152 44/4/151 45/4/153 52/3/154
f 52/3/154 45/4/153 3/4/155 4/3/155
f 18/4/156 23/5/156 88/5/157 39/4/158
f 39/4/158 88/5/157 89/5/159 40/4/159
f 40/4/159 89/5/159 90/5/160 41/4/161
f 41/4/161 90/5/160 91/5/162 42/4/162
f 42/4/162 91/5/162 92/5/163 43/4/164
f 43/4/164 92/5/163 93/5/165 44/4/166
f 44/4/166 93/5/165 94/5/167 45/4/168
f 45/4/168 94/5/167 10/5/169 3/4/169
f 23/5/170 22/6/170 95/6/171 88/5/172
f 88/5/172 95/6/171 96/6/173 89/5/174
f 89/5/174 96/6/173 97/6/175 90/5/176
f 90/5/176 97/6/175 98/6/177 91/5/178
f 91/5/178 98/6/177 99/6/179 92/5/179
f 92/5/179 99/6/179 100/6/180 93/5/180
f 93/5/180 100/6/180 101/6/181 94/5/182
f 94/5/182 101/6/181 11/6/183 10/5/183
f 22/6/184 21/7/184 102/7/185 95/6/186
f 95/6/186 102/7/185 103/7/187 96/6/188
f 96/6/188 103/7/187 104/7/189 97/6/190
f 97/6/190 104/7/189 105/7/191 98/6/192
f 98/6/192 105/7/191 106/7/193 99/6/194
f 99/6/194 106/7/193 107/7/195 100/6/196
f 100/6/196 107/7/195 108/7/197 101/6/198
f 101/6/198 108/7/197 12/7/199 11/6/199
f 21/7/200 20/1/200 75/1/201 102/7/201
f 102/7/201 75/1/201 77/1/202 103/7/203
f 103/7/203 77/1/202 79/1/204 104/7/205
f 104/7/205 79/1/204 81/1/206 105/7/207
f 105/7/207 81/1/206 83/1/208 106/7/209
f 106/7/209 83/1/208 85/1/210 107/7/211
f 107/7/211 85/1/210 87/1/212 108/7/213
f 108/7/213 87/1/212 8/1/214 12/7/214
# 116 faces

